<svg width="1101" height="512" viewBox="0 0 1101 512" fill="none" xmlns="http://www.w3.org/2000/svg">
<g clip-path="url(#clip0_1620_3776)">
<rect width="1101" height="512" fill="#485A69"/>
<path fill-rule="evenodd" clip-rule="evenodd" d="M488.556 320.149L620.45 321.88V428.904L488.663 427.901L488.556 320.149Z" fill="#F9DCA4"/>
<path fill-rule="evenodd" clip-rule="evenodd" d="M762.18 512.423H657C657 512.423 587.09 512.462 552.001 512.423H519.5H435H337L342 419.5L373.272 403.014L488.638 351.548C488.638 389.12 503.883 402.516 554.669 403.279C617.385 404.215 620.45 389.973 620.45 351.25L726.413 403.287L753 419.5L757.18 459.921L762.18 512.423Z" fill="#D5E1ED"/>
<path opacity="0.11" fill-rule="evenodd" clip-rule="evenodd" d="M620.475 321.69V349.891C597.692 390.603 504.487 391.299 488.556 320.149L620.475 321.69Z" fill="black"/>
<path fill-rule="evenodd" clip-rule="evenodd" d="M553.898 70.2788C730.207 70.2788 661.493 362.451 553.898 362.451C452.268 362.451 377.589 70.2788 553.898 70.2788Z" fill="#FFE8BE"/>
<path fill-rule="evenodd" clip-rule="evenodd" d="M448.151 199.629C422.716 210.731 444.34 263.315 460.346 263.075C453.707 242.503 449.612 221.196 448.151 199.629Z" fill="#F9DCA4"/>
<path fill-rule="evenodd" clip-rule="evenodd" d="M661.692 199.629C687.126 210.723 665.503 263.315 649.505 263.075C656.139 242.502 660.232 221.196 661.692 199.629Z" fill="#F9DCA4"/>
<path fill-rule="evenodd" clip-rule="evenodd" d="M655.636 245.519C655.636 245.519 664.467 173.309 638.942 148.156C627.84 177.385 576.789 187.368 576.789 187.368C586.702 180.435 595.657 172.226 603.425 162.953C589.738 168.876 546.458 186.631 507.238 172.571C517.908 166.14 527.942 158.708 537.204 150.376C537.204 150.376 501.687 169.614 467.28 164.809C442.501 183.3 453.528 240.714 453.528 240.714C420.272 153.003 450.901 52.5824 556.061 52.0025C658.444 51.4308 690.034 150.153 655.636 245.519Z" fill="#ECBE6A"/>
<path fill-rule="evenodd" clip-rule="evenodd" d="M488.663 349.867C504.781 373.882 527.755 392.491 554.594 403.271L511.662 447.586L457.057 363.876L488.663 349.867Z" fill="white"/>
<path fill-rule="evenodd" clip-rule="evenodd" d="M620.434 349.867C604.315 373.882 581.342 392.49 554.503 403.271L597.427 447.586L652.04 363.885L620.434 349.867Z" fill="white"/>
<path fill-rule="evenodd" clip-rule="evenodd" d="M572.431 511.594C565.588 512.13 558.673 512.401 551.686 512.406C546.417 512.406 541.184 512.252 535.986 511.942L544.528 439.392H564.494L572.431 511.594Z" fill="#3DBC93"/>
<path fill-rule="evenodd" clip-rule="evenodd" d="M531.885 426.725L554.561 403.386L577.228 426.725L554.561 450.063L531.885 426.725Z" fill="#3DBC93"/>
</g>
<defs>
<clipPath id="clip0_1620_3776">
<rect width="1101" height="512" fill="white"/>
</clipPath>
</defs>
</svg>
